<svg xmlns="http://www.w3.org/2000/svg" xml:space="preserve" style="fill-rule:evenodd;clip-rule:evenodd;stroke-linecap:round;stroke-linejoin:round" viewBox="0 0 600 300"><path fill="#024fa2" d="M0 0h600v300H0V0Z"/><path fill="#fff" d="M0 50h600v200H0V50Z"/><path fill="#ed1c27" d="M0 58.333h600v183.334H0V58.333Z"/><path fill="#fff" d="M133.333 150c0-36.819 29.848-66.667 66.667-66.667s66.667 29.848 66.667 66.667-29.848 66.667-66.667 66.667-66.667-29.848-66.667-66.667Z"/><g fill="#ed1c27"><path d="m200 85.417-19.957 61.422 30.711 9.979L200 85.417Z"/><path d="m200 85.417 19.957 61.422-30.711 9.979L200 85.417Z"/></g><g fill="#ed1c27"><path d="M261.422 130.043h-64.583v32.291l64.583-32.291Z"/><path d="m261.422 130.043-52.249 37.961-18.98-26.125 71.229-11.836Z"/></g><g fill="#ed1c27"><path d="m138.578 130.043 52.249 37.961 18.98-26.125-71.229-11.836Z"/><path d="M138.578 130.043h64.583v32.291l-64.583-32.291Z"/></g><g fill="#ed1c27"><path d="m237.961 202.249-19.957-61.422-30.711 9.978 50.668 51.444Z"/><path d="m237.961 202.249-52.249-37.961 18.981-26.125 33.268 64.086Z"/></g><g fill="#ed1c27"><path d="m162.039 202.249 52.249-37.961-18.981-26.125-33.268 64.086Z"/><path d="m162.039 202.249 19.957-61.422 30.711 9.978-50.668 51.444Z"/></g></svg>